# xmcd
#
# Track frame offsets: 
#        150
#        13031
#        36721
#        47976
#        64515
#        80534
#        98144
#        111134
#        130080
#        149065
#        165130
#        179995
#        202811
#        216501
#
# Disc length: 3128 seconds
#
# Revision: 0
# Processed by: cddbd v1.5.2PL0 Copyright (c) Steve Scherf et al.
# Submitted via: ExactAudioCopyFreeDBPlugin 1.0
#
DISCID=d00c360e
DTITLE=Little Joe Washington - Texas Fire Line
DYEAR=2009
DGENRE=Blues
TTITLE0=I'll Go Crazy
TTITLE1=Ike
TTITLE2=Lonely Lonely Nights
TTITLE3=Fonky
TTITLE4=She's In New Orleans
TTITLE5=You Send Me
TTITLE6=Just a Little Bit
TTITLE7=Chameleon
TTITLE8=Church House Blues
TTITLE9=Somebody Tell Me
TTITLE10=I Love Country Girl's
TTITLE11=You're Still My Baby
TTITLE12=More and More
TTITLE13=Cry All Night Long
EXTD=
EXTT0=
EXTT1=
EXTT2=
EXTT3=
EXTT4=
EXTT5=
EXTT6=
EXTT7=
EXTT8=
EXTT9=
EXTT10=
EXTT11=
EXTT12=
EXTT13=
PLAYORDER=
